<?xml version="1.0" encoding="UTF-8"?>
<svg id="Calque_1" xmlns="http://www.w3.org/2000/svg" viewBox="0 0 589.32 355.72">
  <g>
    <path d="M26.16,322.09l11.8-17.21h12.11l-18.41,25.33,10.39,24.78h-11.15l-6.57-17.48-12.08,17.48H0l18.82-25.74-10.08-24.37h11.01l6.4,17.21Z"/>
    <path d="M60.47,337.33l-3.1,17.65h-10.08l8.71-50.11,17.55.03c5.41,0,9.67,1.5,12.77,4.51,3.1,3.01,4.45,6.93,4.06,11.77-.37,4.91-2.42,8.83-6.14,11.77-3.73,2.94-8.48,4.41-14.26,4.41l-9.5-.03ZM61.88,328.97l8.4.07c2.71,0,4.96-.7,6.75-2.1,1.79-1.4,2.86-3.29,3.2-5.68.34-2.39-.04-4.29-1.15-5.71-1.11-1.42-2.76-2.18-4.94-2.27l-9.5-.03-2.75,15.73Z"/>
    <path d="M113.19,336.65h-8.19l-3.2,18.34h-10.08l8.71-50.11,16.59.03c5.55,0,9.83,1.31,12.82,3.92,2.99,2.62,4.32,6.25,3.98,10.91-.48,6.88-4.15,11.67-11.01,14.35l7.05,20.34v.55h-10.74l-5.92-18.34ZM106.44,328.28l7.5.07c2.66-.05,4.86-.76,6.59-2.15,1.73-1.39,2.77-3.27,3.11-5.66.32-2.23-.03-3.97-1.07-5.23-1.03-1.26-2.67-1.94-4.92-2.03l-8.6-.03-2.62,15.04Z"/>
    <path d="M168.77,333.27h-19.2l-2.34,13.42h22.58l-1.45,8.29h-32.66l8.71-50.11h32.59l-1.48,8.36h-22.47l-2.1,11.94h19.27l-1.45,8.09Z"/>
    <path d="M202.05,341.6c.48-2.73-.86-4.82-4.03-6.26l-6.64-2.65c-7.71-3.44-11.37-8.18-10.98-14.21.16-2.8,1.08-5.28,2.75-7.43,1.67-2.16,4.03-3.85,7.06-5.08,3.03-1.23,6.3-1.82,9.81-1.77,4.84.09,8.75,1.53,11.74,4.32,2.98,2.79,4.45,6.52,4.41,11.2h-10.05c.11-2.27-.38-4.04-1.5-5.3-1.11-1.26-2.84-1.92-5.18-1.96-2.29-.05-4.29.48-5.99,1.57-1.7,1.09-2.71,2.59-3.03,4.49-.44,2.5,1.24,4.49,5.02,5.95l4.54,1.72,2.62,1.2c6.77,3.35,9.93,8.05,9.5,14.11-.21,2.96-1.15,5.51-2.84,7.66-1.69,2.15-3.98,3.79-6.88,4.94-2.9,1.15-6.1,1.69-9.58,1.62-3.56-.07-6.72-.81-9.5-2.24-2.78-1.42-4.89-3.43-6.33-6.02-1.35-2.41-1.98-5.16-1.89-8.26l10.08.03c-.32,5.44,2.35,8.2,8.02,8.29,2.45,0,4.47-.54,6.06-1.62,1.58-1.08,2.52-2.51,2.82-4.3Z"/>
    <path d="M244.41,341.6c.48-2.73-.86-4.82-4.03-6.26l-6.64-2.65c-7.71-3.44-11.37-8.18-10.98-14.21.16-2.8,1.08-5.28,2.75-7.43,1.67-2.16,4.03-3.85,7.06-5.08,3.03-1.23,6.3-1.82,9.81-1.77,4.84.09,8.75,1.53,11.74,4.32,2.98,2.79,4.45,6.52,4.41,11.2h-10.05c.11-2.27-.38-4.04-1.5-5.3-1.11-1.26-2.84-1.92-5.18-1.96-2.29-.05-4.29.48-5.99,1.57-1.7,1.09-2.71,2.59-3.03,4.49-.44,2.5,1.24,4.49,5.02,5.95l4.54,1.72,2.62,1.2c6.77,3.35,9.93,8.05,9.5,14.11-.21,2.96-1.15,5.51-2.84,7.66-1.69,2.15-3.98,3.79-6.88,4.94-2.9,1.15-6.1,1.69-9.58,1.62-3.56-.07-6.72-.81-9.5-2.24-2.78-1.42-4.89-3.43-6.33-6.02-1.35-2.41-1.98-5.16-1.89-8.26l10.08.03c-.32,5.44,2.35,8.2,8.02,8.29,2.45,0,4.47-.54,6.06-1.62,1.58-1.08,2.52-2.51,2.82-4.3Z"/>
    <path d="M317.44,338.26c-.39,3.46-1.57,6.53-3.54,9.21-1.97,2.67-4.54,4.73-7.71,6.16-3.17,1.43-6.58,2.12-10.26,2.05-3.3-.07-6.18-.83-8.64-2.29-2.46-1.46-4.39-3.57-5.8-6.33-1.41-2.76-2.21-5.95-2.39-9.55-.16-2.82.13-6.33.88-10.53.75-4.2,2.08-7.93,3.99-11.18,1.92-3.26,4.19-5.84,6.83-7.74,3.72-2.66,7.96-3.95,12.73-3.85,5.18.09,9.3,1.69,12.34,4.8,3.04,3.11,4.71,7.43,5.01,12.96l-10.05-.03c0-3.17-.63-5.48-1.89-6.95-1.26-1.47-3.22-2.25-5.88-2.34-3.44-.11-6.27,1.11-8.48,3.68-2.21,2.57-3.7,6.32-4.46,11.25-.73,4.8-1.06,8.39-.96,10.77.11,3.03.79,5.26,2.03,6.69,1.24,1.43,2.97,2.19,5.2,2.25,3.07.12,5.53-.61,7.38-2.19,1.85-1.57,3.07-3.83,3.67-6.76l10.01-.07Z"/>
    <path d="M341.81,355.68c-3.33-.07-6.26-.85-8.79-2.36-2.54-1.5-4.54-3.67-6.02-6.5-1.48-2.83-2.33-6.09-2.56-9.76-.25-3.76.15-7.78,1.2-12.05,1.06-4.27,2.75-8.02,5.09-11.25,2.34-3.23,5.09-5.66,8.24-7.26,3.15-1.61,6.57-2.37,10.24-2.31,3.37.07,6.32.87,8.84,2.39,2.52,1.53,4.51,3.72,5.95,6.57,1.45,2.86,2.27,6.1,2.48,9.72.23,4.04-.21,8.19-1.31,12.46s-2.81,7.96-5.13,11.08c-2.32,3.12-5.03,5.46-8.14,7.02-3.11,1.56-6.48,2.31-10.1,2.24ZM356.09,328.56l.28-3.27c.23-4.08-.32-7.18-1.63-9.29-1.32-2.11-3.32-3.21-6.01-3.3-4.2-.14-7.53,1.72-10,5.58-2.47,3.85-3.86,9.25-4.18,16.17-.23,4.06.31,7.19,1.62,9.38,1.31,2.19,3.34,3.33,6.09,3.42,3.6.16,6.58-1.24,8.95-4.22,2.36-2.97,3.91-7.18,4.65-12.61l.24-1.86Z"/>
    <path d="M408.85,354.99h-9.77l-13.94-33.42-5.82,33.42h-10.08l8.71-50.11h9.74l13.97,33.49,5.82-33.49h10.05l-8.67,50.11Z"/>
    <path d="M438,342.46l16.86-37.58h11.56l-24.74,50.11h-10.53l-9.02-50.11h10.84l5.02,37.58Z"/>
    <path d="M495.98,333.27h-19.2l-2.34,13.42h22.58l-1.45,8.29h-32.66l8.71-50.11h32.59l-1.48,8.36h-22.47l-2.1,11.94h19.27l-1.45,8.09Z"/>
    <path d="M523.17,336.65h-8.19l-3.2,18.34h-10.08l8.71-50.11,16.59.03c5.55,0,9.83,1.31,12.82,3.92,2.99,2.62,4.32,6.25,3.98,10.91-.48,6.88-4.15,11.67-11.01,14.35l7.05,20.34v.55h-10.74l-5.92-18.34ZM516.43,328.28l7.5.07c2.66-.05,4.86-.76,6.59-2.15,1.73-1.39,2.77-3.27,3.11-5.66.32-2.23-.03-3.97-1.07-5.23-1.03-1.26-2.67-1.94-4.92-2.03l-8.6-.03-2.62,15.04Z"/>
    <path d="M587.84,313.24h-14.87l-7.23,41.75h-10.08l7.23-41.75h-14.69l1.48-8.36h39.65l-1.48,8.36Z"/>
  </g>
  <g>
    <polygon points="197.37 2.14 311.62 270.47 470.42 270.74 197.37 2.14" style="fill-rule: evenodd;"/>
    <polygon points="352.94 2.12 254.57 231.06 118.9 230.84 352.94 2.12" style="fill-rule: evenodd; stroke: #000; stroke-miterlimit: 10;"/>
    <line x1="449.03" y1="249.7" x2="439.18" y2="258.23" style="fill: none; stroke: #fff; stroke-miterlimit: 10; stroke-width: 4px;"/>
    <line x1="442.89" y1="243.65" x2="433.4" y2="251.87" style="fill: none; stroke: #fff; stroke-miterlimit: 10; stroke-width: 4px;"/>
    <line x1="436.19" y1="237.07" x2="426.46" y2="245.51" style="fill: none; stroke: #fff; stroke-miterlimit: 10; stroke-width: 4px;"/>
    <line x1="429.77" y1="230.76" x2="420.1" y2="239.15" style="fill: none; stroke: #fff; stroke-miterlimit: 10; stroke-width: 4px;"/>
    <line x1="416.94" y1="218.13" x2="407.38" y2="226.42" style="fill: none; stroke: #fff; stroke-miterlimit: 10; stroke-width: 4px;"/>
    <line x1="410.26" y1="211.55" x2="400.43" y2="220.06" style="fill: none; stroke: #fff; stroke-miterlimit: 10; stroke-width: 4px;"/>
    <line x1="402.94" y1="204.36" x2="393.49" y2="212.54" style="fill: none; stroke: #fff; stroke-miterlimit: 10; stroke-width: 4px;"/>
    <line x1="396.25" y1="197.78" x2="386.55" y2="206.18" style="fill: none; stroke: #fff; stroke-miterlimit: 10; stroke-width: 4px;"/>
    <line x1="423.07" y1="224.15" x2="404.48" y2="240.3" style="fill: none; stroke: #fff; stroke-miterlimit: 10; stroke-width: 4px;"/>
    <line x1="388.95" y1="190.6" x2="370.36" y2="206.76" style="fill: none; stroke: #fff; stroke-miterlimit: 10; stroke-width: 4px;"/>
  </g>
</svg>